<?xml version="1.0" encoding="UTF-8" standalone="no"?>
<svg
   xmlns:dc="http://purl.org/dc/elements/1.1/"
   xmlns:cc="http://creativecommons.org/ns#"
   xmlns:rdf="http://www.w3.org/1999/02/22-rdf-syntax-ns#"
   xmlns:svg="http://www.w3.org/2000/svg"
   xmlns="http://www.w3.org/2000/svg"
   xmlns:sodipodi="http://sodipodi.sourceforge.net/DTD/sodipodi-0.dtd"
   xmlns:inkscape="http://www.inkscape.org/namespaces/inkscape"
   width="215.79147mm"
   height="5.35006mm"
   viewBox="0 0 215.79147 5.35006"
   version="1.1"
   id="svg8"
   inkscape:version="1.0.1 (3bc2e813f5, 2020-09-07)"
   sodipodi:docname="drawing.svg">
  <defs
     id="defs2" />
  <sodipodi:namedview
     id="base"
     pagecolor="#ffffff"
     bordercolor="#666666"
     borderopacity="1.0"
     inkscape:pageopacity="0.0"
     inkscape:pageshadow="2"
     inkscape:zoom="1.4"
     inkscape:cx="424.24451"
     inkscape:cy="-65.069348"
     inkscape:document-units="mm"
     inkscape:current-layer="layer1"
     inkscape:document-rotation="0"
     showgrid="false"
     fit-margin-top="0"
     fit-margin-left="0"
     fit-margin-right="0"
     fit-margin-bottom="0"
     inkscape:window-width="2302"
     inkscape:window-height="1040"
     inkscape:window-x="2254"
     inkscape:window-y="259"
     inkscape:window-maximized="0" />
  <metadata
     id="metadata5">
    <rdf:RDF>
      <cc:Work
         rdf:about="">
        <dc:format>image/svg+xml</dc:format>
        <dc:type
           rdf:resource="http://purl.org/dc/dcmitype/StillImage" />
        <dc:title></dc:title>
      </cc:Work>
    </rdf:RDF>
  </metadata>
  <g
     inkscape:label="Layer 1"
     inkscape:groupmode="layer"
     id="layer1"
     transform="translate(7.55945,-101.83535)">
    <path
       id="rect835-1"
       style="fill:#000000;stroke:none;stroke-width:0.733586;stroke-linecap:round"
       d="m -4.8846779,101.83535 c -1.481988,0 -2.6747721,1.1933 -2.6747721,2.67529 0,1.48198 1.1927841,2.67477 2.6747721,2.67477 H 29.765402 c 1.481989,0 2.675289,-1.19279 2.675289,-2.67477 0,-1.48199 -1.1933,-2.67529 -2.675289,-2.67529 z m 43.9482209,0 c -1.481987,0 -2.67529,1.1933 -2.67529,2.67529 0,1.48198 1.193303,2.67477 2.67529,2.67477 h 34.649565 c 1.481987,0 2.675287,-1.19279 2.675287,-2.67477 3e-6,-1.48199 -1.1933,-2.67529 -2.675287,-2.67529 z m 43.947706,0 c -1.481989,0 -2.674773,1.1933 -2.674773,2.67529 0,1.48198 1.192784,2.67477 2.674773,2.67477 h 34.650081 c 1.48199,0 2.67477,-1.19279 2.67477,-2.67477 0,-1.48199 -1.19278,-2.67529 -2.67477,-2.67529 z m 43.948221,0 c -1.48199,0 -2.67529,1.1933 -2.67529,2.67529 0,1.48198 1.1933,2.67477 2.67529,2.67477 h 34.64956 c 1.48199,0 2.67529,-1.19279 2.67529,-2.67477 0,-1.48199 -1.1933,-2.67529 -2.67529,-2.67529 z m 43.9477,0 c -1.48199,0 -2.67529,1.1933 -2.67529,2.67529 0,1.48198 1.1933,2.67477 2.67529,2.67477 h 34.65008 c 1.48199,0 2.67478,-1.19279 2.67478,-2.67477 0,-1.48199 -1.19279,-2.67529 -2.67478,-2.67529 z" />
  </g>
</svg>
